<svg xmlns="http://www.w3.org/2000/svg" width="1200" height="630" viewBox="0 0 1200 630">
  <!-- Background -->
  <rect width="1200" height="630" fill="#1a1a2e"/>
  
  <!-- Gradient overlay -->
  <defs>
    <linearGradient id="bgGrad" x1="0%" y1="0%" x2="100%" y2="100%">
      <stop offset="0%" style="stop-color:#16213e;stop-opacity:1" />
      <stop offset="100%" style="stop-color:#0f3460;stop-opacity:1" />
    </linearGradient>
  </defs>
  <rect width="1200" height="630" fill="url(#bgGrad)"/>
  
  <!-- Decorative circles -->
  <circle cx="100" cy="100" r="150" fill="#e94560" opacity="0.1"/>
  <circle cx="1100" cy="530" r="200" fill="#ff4f40" opacity="0.08"/>
  
  <!-- Center content area -->
  <g transform="translate(600, 315)">
    <!-- Lobster at 20x scale (was 16x16, now 320x320) -->
    <g transform="translate(-160, -160) scale(20)">
      <!-- outline -->
      <g fill="#3a0a0d">
        <rect x="1" y="5" width="1" height="3"/>
        <rect x="2" y="4" width="1" height="1"/>
        <rect x="2" y="8" width="1" height="1"/>
        <rect x="3" y="3" width="1" height="1"/>
        <rect x="3" y="9" width="1" height="1"/>
        <rect x="4" y="2" width="1" height="1"/>
        <rect x="4" y="10" width="1" height="1"/>
        <rect x="5" y="2" width="6" height="1"/>
        <rect x="11" y="2" width="1" height="1"/>
        <rect x="12" y="3" width="1" height="1"/>
        <rect x="12" y="9" width="1" height="1"/>
        <rect x="13" y="4" width="1" height="1"/>
        <rect x="13" y="8" width="1" height="1"/>
        <rect x="14" y="5" width="1" height="3"/>
        <rect x="5" y="11" width="6" height="1"/>
        <rect x="4" y="12" width="1" height="1"/>
        <rect x="11" y="12" width="1" height="1"/>
        <rect x="3" y="13" width="1" height="1"/>
        <rect x="12" y="13" width="1" height="1"/>
        <rect x="5" y="14" width="6" height="1"/>
      </g>

      <!-- body -->
      <g fill="#ff4f40">
        <rect x="5" y="3" width="6" height="1"/>
        <rect x="4" y="4" width="8" height="1"/>
        <rect x="3" y="5" width="10" height="1"/>
        <rect x="3" y="6" width="10" height="1"/>
        <rect x="3" y="7" width="10" height="1"/>
        <rect x="4" y="8" width="8" height="1"/>
        <rect x="5" y="9" width="6" height="1"/>
        <rect x="5" y="12" width="6" height="1"/>
        <rect x="6" y="13" width="4" height="1"/>
      </g>

      <!-- claws -->
      <g fill="#ff775f">
        <rect x="1" y="6" width="2" height="1"/>
        <rect x="2" y="5" width="1" height="1"/>
        <rect x="2" y="7" width="1" height="1"/>
        <rect x="13" y="6" width="2" height="1"/>
        <rect x="13" y="5" width="1" height="1"/>
        <rect x="13" y="7" width="1" height="1"/>
      </g>

      <!-- eyes -->
      <g fill="#081016">
        <rect x="6" y="5" width="1" height="1"/>
        <rect x="9" y="5" width="1" height="1"/>
      </g>
      <g fill="#f5fbff">
        <rect x="6" y="4" width="1" height="1"/>
        <rect x="9" y="4" width="1" height="1"/>
      </g>
    </g>
  </g>
  
  <!-- Text -->
  <text x="600" y="520" font-family="-apple-system, BlinkMacSystemFont, 'Segoe UI', sans-serif" font-size="32" font-weight="600" fill="#ffffff" text-anchor="middle" opacity="0.9">AI 接管我的博客</text>
  <text x="600" y="560" font-family="-apple-system, BlinkMacSystemFont, 'Segoe UI', sans-serif" font-size="18" fill="#a0a0a0" text-anchor="middle">OpenClaw × knightofbatons.github.io</text>
</svg>